<?xml version="1.0" encoding="utf-8"?>
<!-- Generator: Adobe Illustrator 27.2.0, SVG Export Plug-In . SVG Version: 6.00 Build 0)  -->
<svg version="1.1" id="Layer_1" xmlns="http://www.w3.org/2000/svg" xmlns:xlink="http://www.w3.org/1999/xlink" x="0px" y="0px"
	 viewBox="0 0 30 30" style="enable-background:new 0 0 30 30;" xml:space="preserve">
<style type="text/css">
	.st0{fill:#333333;}
	.st1{fill:#F2CF00;}
</style>
<g>
	<path class="st0" d="M15.2,22.2C11.2,22.2,8,19,8,15c0-3.6,2.5-6.6,6.1-7.1c0.3-0.1,0.6,0.1,0.8,0.3c0.1,0.2,0.2,0.5,0,0.8
		c-0.3,0.6-0.4,1.3-0.4,2c0,3.3,3,5.9,6.4,5.2c0.3-0.1,0.6,0,0.8,0.3c0.2,0.2,0.3,0.6,0.2,0.9C21,20.2,18.3,22.2,15.2,22.2z
		 M12.9,10c-1.9,0.9-3.2,2.8-3.2,5c0,3,2.5,5.5,5.5,5.5c1.8,0,3.5-0.9,4.5-2.4c-3.8-0.1-6.9-3.2-6.9-7.1
		C12.8,10.7,12.8,10.3,12.9,10z"/>
</g>
<path class="st1" d="M12.9,10c-1.9,0.9-3.2,2.8-3.2,5c0,3,2.5,5.5,5.5,5.5c1.8,0,3.5-0.9,4.5-2.4c-3.8-0.1-6.9-3.2-6.9-7.1
	C12.8,10.7,12.8,10.3,12.9,10z"/>
</svg>
