<?xml version="1.0" encoding="utf-8"?>
<!-- Generator: Adobe Illustrator 27.2.0, SVG Export Plug-In . SVG Version: 6.00 Build 0)  -->
<svg version="1.1" id="Layer_1" xmlns="http://www.w3.org/2000/svg" xmlns:xlink="http://www.w3.org/1999/xlink" x="0px" y="0px"
	 viewBox="0 0 30 30" style="enable-background:new 0 0 30 30;" xml:space="preserve">
<style type="text/css">
	.st0{fill:#333333;}
	.st1{fill:#F2CF00;}
	.st2{fill:none;}
	.st3{fill:#FFFFFF;}
</style>
<g>
	<g>
		<path class="st0" d="M20.9,18.2c-3.4,0-6.2-2.7-6.2-6.2c0-3.1,2.1-5.7,5.2-6.1c0.3-0.1,0.5,0.1,0.7,0.3c0.1,0.2,0.2,0.4,0,0.7
			c-0.3,0.5-0.3,1.1-0.3,1.7c0,2.8,2.6,5.1,5.5,4.5c0.3-0.1,0.5,0,0.7,0.3c0.2,0.2,0.3,0.5,0.2,0.8C25.9,16.5,23.6,18.2,20.9,18.2z
			 M19,7.8c-1.7,0.7-2.8,2.4-2.8,4.3c0,2.6,2.1,4.7,4.7,4.7c1.5,0,3-0.8,3.9-2.1c-3.3-0.1-5.9-2.7-5.9-6.1C18.9,8.4,18.9,8,19,7.8z"
			/>
	</g>
	<path class="st1" d="M19,7.8c-1.7,0.7-2.8,2.4-2.8,4.3c0,2.6,2.1,4.7,4.7,4.7c1.5,0,3-0.8,3.9-2.1c-3.3-0.1-5.9-2.7-5.9-6.1
		C18.9,8.4,18.9,8,19,7.8z"/>
	<path class="st0" d="M3.2,19.2c0-1.1,0.4-2.2,1.1-3.1C5,15.2,5.9,14.6,7,14.4C7.3,13,8,11.9,9.1,11s2.3-1.3,3.8-1.3
		c1.4,0,2.6,0.4,3.7,1.3c1.1,0.9,1.8,1.9,2.1,3.3H19c0.9,0,1.7,0.2,2.5,0.6s1.4,1,1.8,1.8c0.4,0.8,0.7,1.6,0.7,2.5s-0.2,1.7-0.6,2.5
		s-1,1.4-1.7,1.8c-0.8,0.4-1.6,0.6-2.5,0.6H8c-1.3-0.1-2.5-0.6-3.4-1.5C3.7,21.6,3.2,20.5,3.2,19.2z M4.9,19.2
		c0,0.9,0.3,1.6,0.9,2.3s1.3,1,2.2,1h11.2c0.9,0,1.6-0.4,2.2-1s0.9-1.4,0.9-2.3s-0.3-1.6-1-2.3c-0.7-0.7-1.4-1-2.3-1h-1.6
		c-0.1,0-0.2-0.1-0.2-0.2v-0.5c-0.1-1.1-0.6-2-1.4-2.7c-0.8-0.7-1.8-1.1-2.9-1.1s-2.1,0.4-2.8,1.1c-0.8,0.7-1.3,1.6-1.4,2.7
		l-0.1,0.6c0,0.1-0.1,0.2-0.2,0.2H7.9c-0.8,0.1-1.5,0.5-2.1,1.1S4.9,18.3,4.9,19.2z"/>
	<g>
		<path class="st2" d="M16.9,14.1c0,0.1,0.1,0.2,0.1,0.3C17,14.3,17,14.2,16.9,14.1z"/>
	</g>
	<path class="st3" d="M4.9,19.2c0,0.9,0.3,1.6,0.9,2.3s1.3,1,2.2,1h11.2c0.9,0,1.6-0.4,2.2-1s0.9-1.4,0.9-2.3s-0.3-1.6-1-2.3
		c-0.7-0.7-1.4-1-2.3-1h-1.6c-0.1,0-0.2-0.1-0.2-0.2v-0.5c-0.1-1.1-0.6-2-1.4-2.7c-0.8-0.7-1.8-1.1-2.9-1.1s-2.1,0.4-2.8,1.1
		c-0.8,0.7-1.3,1.6-1.4,2.7l-0.1,0.6c0,0.1-0.1,0.2-0.2,0.2H7.9c-0.8,0.1-1.5,0.5-2.1,1.1S4.9,18.3,4.9,19.2z"/>
</g>
</svg>
