<?xml version="1.0" encoding="utf-8"?>
<!-- Generator: Adobe Illustrator 27.2.0, SVG Export Plug-In . SVG Version: 6.00 Build 0)  -->
<svg version="1.1" id="Layer_1" xmlns="http://www.w3.org/2000/svg" xmlns:xlink="http://www.w3.org/1999/xlink" x="0px" y="0px"
	 viewBox="0 0 30 30" style="enable-background:new 0 0 30 30;" xml:space="preserve">
<style type="text/css">
	.st0{fill:#FFFFFF;}
	.st1{fill:#333333;}
	.st2{fill:#F2CF00;}
</style>
<path class="st0" d="M6.3,16.9c0,0.9,0.3,1.6,0.9,2.3s1.3,1,2.2,1h11.2c0.9,0,1.6-0.4,2.2-1s0.9-1.4,0.9-2.3c0-0.9-0.3-1.6-1-2.3
	s-1.4-1-2.3-1h-1.6c-0.1,0-0.2-0.1-0.2-0.2l-0.1-0.6c-0.1-1.1-0.6-2-1.4-2.7S15.3,9,14.2,9s-2.1,0.4-2.8,1.1
	c-0.8,0.7-1.3,1.6-1.4,2.7v0.7c0,0.1-0.1,0.2-0.2,0.2H9.3c-0.8,0.1-1.5,0.5-2.1,1.1S6.3,16,6.3,16.9z"/>
<path class="st1" d="M4.6,16.9c0,1.3,0.5,2.5,1.4,3.4c0.9,1,2.1,1.5,3.4,1.5c0.1,0,0.2-0.1,0.2-0.2v-1.3c0-0.1-0.1-0.2-0.2-0.2
	c-0.9,0-1.6-0.4-2.2-1s-0.9-1.4-0.9-2.3c0-0.8,0.3-1.5,0.8-2.2s1.3-1,2.1-1.1h0.5c0.1,0,0.2-0.1,0.2-0.2l0.1-0.6
	c0.1-1.1,0.6-2,1.4-2.7c0.8-0.7,1.8-1.1,2.9-1.1s2,0.4,2.9,1.1c0.8,0.7,1.3,1.6,1.4,2.7l0.1,0.6c0,0.1,0.1,0.2,0.2,0.2h1.6
	c0.9,0,1.7,0.3,2.3,1c0.6,0.6,1,1.4,1,2.3c0,0.9-0.3,1.6-0.9,2.3s-1.3,1-2.2,1c-0.1,0-0.2,0.1-0.2,0.2v1.3c0,0.1,0.1,0.2,0.2,0.2
	c0.9,0,1.7-0.3,2.4-0.7c0.7-0.5,1.3-1,1.7-1.8s0.6-1.6,0.6-2.5c0-0.9-0.2-1.7-0.7-2.5c-0.4-0.8-1-1.4-1.8-1.8S21.3,12,20.4,12h-0.3
	c-0.3-1.3-1-2.4-2.1-3.3s-2.3-1.3-3.7-1.3s-2.7,0.4-3.8,1.3s-1.8,2-2.1,3.4c-1.1,0.3-2,0.8-2.7,1.7S4.6,15.7,4.6,16.9z"/>
<path class="st2" d="M11.8,21.6c-0.1,0.1,0,0.2,0.1,0.2h2.2l-1.3,4.1h0.3l4.2-5.6v-0.1l-0.1-0.1H15l2.3-4.2c0.1-0.1,0-0.2-0.1-0.2
	h-2.9c-0.1,0-0.1,0.1-0.2,0.1L11.8,21.6z"/>
</svg>
