<?xml version="1.0" encoding="utf-8"?>
<!-- Generator: Adobe Illustrator 27.2.0, SVG Export Plug-In . SVG Version: 6.00 Build 0)  -->
<svg version="1.1" id="Layer_1" xmlns="http://www.w3.org/2000/svg" xmlns:xlink="http://www.w3.org/1999/xlink" x="0px" y="0px"
	 viewBox="0 0 30 30" style="enable-background:new 0 0 30 30;" xml:space="preserve">
<style type="text/css">
	.st0{fill:#333333;}
	.st1{fill:#666666;}
</style>
<path class="st0" d="M7.1,12.6c0-0.2,0.1-0.4,0.2-0.6c0.2-0.1,0.3-0.2,0.6-0.2h12.1c0.2,0,0.4,0.1,0.5,0.2c0.1,0.1,0.2,0.3,0.2,0.6
	s-0.1,0.4-0.2,0.6c-0.1,0.1-0.3,0.2-0.5,0.2H7.9c-0.2,0-0.4-0.1-0.6-0.2S7.1,12.8,7.1,12.6z M8.7,18.3c0-0.2,0.1-0.4,0.2-0.5
	c0.1-0.1,0.3-0.2,0.5-0.2h12.1c0.2,0,0.4,0.1,0.6,0.2c0.1,0.1,0.2,0.3,0.2,0.5s-0.1,0.4-0.2,0.6s-0.3,0.2-0.6,0.2H9.5
	c-0.2,0-0.4-0.1-0.6-0.2S8.7,18.6,8.7,18.3z"/>
<path class="st1" d="M4.7,15.5c0-0.2,0.1-0.4,0.2-0.6c0.2-0.1,0.3-0.2,0.6-0.2h12.1c0.2,0,0.4,0.1,0.5,0.2c0.1,0.1,0.2,0.3,0.2,0.6
	c0,0.2-0.1,0.4-0.2,0.5c-0.1,0.1-0.3,0.2-0.5,0.2H5.4c-0.2,0-0.4-0.1-0.6-0.2C4.7,15.9,4.7,15.7,4.7,15.5z"/>
<path class="st1" d="M19.3,15.5c0-0.2,0.1-0.4,0.2-0.6s0.3-0.2,0.6-0.2h4.5c0.2,0,0.4,0.1,0.6,0.2c0.1,0.1,0.2,0.3,0.2,0.6
	s-0.1,0.4-0.2,0.5s-0.3,0.2-0.6,0.2h-4.5c-0.2,0-0.4-0.1-0.6-0.2C19.3,15.9,19.3,15.7,19.3,15.5z"/>
</svg>
