<?xml version="1.0" encoding="utf-8"?>
<!-- Generator: Adobe Illustrator 27.2.0, SVG Export Plug-In . SVG Version: 6.00 Build 0)  -->
<svg version="1.1" id="Layer_1" xmlns="http://www.w3.org/2000/svg" xmlns:xlink="http://www.w3.org/1999/xlink" x="0px" y="0px"
	 viewBox="0 0 30 30" style="enable-background:new 0 0 30 30;" xml:space="preserve">
<style type="text/css">
	.st0{stroke:#000000;stroke-width:1.7008;stroke-linecap:round;stroke-linejoin:round;stroke-miterlimit:10;}
</style>
<g>
	<g>
		<line class="st0" x1="14.7" y1="5.1" x2="14.7" y2="24.9"/>
		<g>
			<line class="st0" x1="11.1" y1="6.2" x2="14.6" y2="9.8"/>
			<line class="st0" x1="18.4" y1="6.2" x2="14.9" y2="9.8"/>
		</g>
		<g>
			<line class="st0" x1="18.4" y1="24.3" x2="14.9" y2="20.8"/>
			<line class="st0" x1="11.1" y1="24.3" x2="14.6" y2="20.8"/>
		</g>
	</g>
	<g>
		<line class="st0" x1="6.2" y1="10.1" x2="23.3" y2="19.9"/>
		<g>
			<line class="st0" x1="5.3" y1="13.8" x2="10.2" y2="12.5"/>
			<line class="st0" x1="9" y1="7.4" x2="10.3" y2="12.3"/>
		</g>
		<g>
			<line class="st0" x1="24.7" y1="16.5" x2="19.8" y2="17.8"/>
			<line class="st0" x1="21" y1="22.9" x2="19.7" y2="18"/>
		</g>
	</g>
	<g>
		<line class="st0" x1="6.2" y1="19.9" x2="23.3" y2="10.1"/>
		<g>
			<line class="st0" x1="9" y1="22.6" x2="10.3" y2="17.7"/>
			<line class="st0" x1="5.3" y1="16.2" x2="10.2" y2="17.5"/>
		</g>
		<g>
			<line class="st0" x1="21" y1="7.1" x2="19.7" y2="12"/>
			<line class="st0" x1="24.7" y1="13.5" x2="19.8" y2="12.2"/>
		</g>
	</g>
</g>
</svg>
